<svg xmlns="http://www.w3.org/2000/svg" xmlns:xlink="http://www.w3.org/1999/xlink" width="36" height="36" viewBox="0 0 36 36"><defs><linearGradient id="linear-gradient" x2="1" y1=".5" y2=".5" gradientUnits="objectBoundingBox"><stop offset="0" stop-color="#c93418"/><stop offset=".5" stop-color="#773544"/><stop offset="1" stop-color="#323568"/></linearGradient></defs><g id="Group_270" data-name="Group 270" transform="translate(-1300 -682)"><rect id="Rectangle_65" width="36" height="36" fill="url(#linear-gradient)" data-name="Rectangle 65" rx="8" transform="translate(1300 682)"/><path id="Path_1248" fill="#fff" d="M305.02,1822.292h3.6v11.552h-3.6Zm1.8-5.741a2.082,2.082,0,1,1-2.085,2.08,2.082,2.082,0,0,1,2.085-2.08" data-name="Path 1248" transform="translate(1004.599 -1125.318)"/><path id="Path_1249" fill="#fff" d="M324.935,1834.8h3.444v1.58h.047a3.776,3.776,0,0,1,3.4-1.866c3.635,0,4.306,2.391,4.306,5.5v6.336h-3.588v-5.616c0-1.341-.026-3.063-1.866-3.063-1.869,0-2.154,1.459-2.154,2.965v5.714h-3.589Z" data-name="Path 1249" transform="translate(990.534 -1137.823)"/></g></svg>